<svg xmlns="http://www.w3.org/2000/svg" width="64" height="64">
<rect width="50" height="32" x="7" y="24" rx="2.5" opacity=".2"/>
<path fill="#b58f1b" d="M7 44.5C7 45.885 8.115 47 9.5 47h45c1.385 0 2.5-1.115 2.5-2.5v-27c0-1.385-1.115-2.5-2.5-2.5H29v-2.5c0-1.385-1.115-2.5-2.5-2.5h-17C8.115 10 7 11.115 7 12.5"/>
<rect width="50" height="32" x="7" y="22" rx="2.5" opacity=".2"/>
<rect fill="#e4e4e4" width="44" height="20" x="10" y="18" rx="2.5"/>
<rect fill="#e2b322" width="50" height="32" x="7" y="23" rx="2.5"/>
<path fill="#fff" d="M9.5 10C8.115 10 7 11.115 7 12.5v1C7 12.115 8.115 11 9.5 11h17c1.385 0 2.5 1.115 2.5 2.5v-1c0-1.385-1.115-2.5-2.5-2.5zM29 15v1h25.5a2.49 2.49 0 0 1 2.5 2.5v-1a2.49 2.49 0 0 0-2.5-2.5z" opacity=".1"/>
<path fill="#4f3e0c" d="M32.122 50.646a3.21 3.21 0 0 1-2.287-.942c-.727-.727-1.027-1.746-.895-2.72a3.19 3.19 0 0 1-2.557 1.287 3.22 3.22 0 0 1-3.216-3.212 3.2 3.2 0 0 1 1.285-2.564c-.147.02-.297.03-.448.03-.863 0-1.671-.332-2.275-.936a3.21 3.21 0 0 1-.942-2.287 3.21 3.21 0 0 1 .942-2.287 3.18 3.18 0 0 1 2.266-.932 3.35 3.35 0 0 1 .445.03 3.19 3.19 0 0 1-1.278-2.55 3.22 3.22 0 0 1 3.212-3.216c1.05 0 1.985.509 2.57 1.294-.133-.976.168-2 .899-2.731a3.21 3.21 0 0 1 2.287-.942 3.21 3.21 0 0 1 2.287.942c.727.727 1.027 1.746.895 2.719a3.19 3.19 0 0 1 2.557-1.287 3.22 3.22 0 0 1 3.216 3.212c0 1.044-.503 1.974-1.28 2.56a3.35 3.35 0 0 1 .451-.031 3.18 3.18 0 0 1 2.266.932 3.21 3.21 0 0 1 .942 2.287c0 .867-.335 1.696-.942 2.303s-1.411.952-2.274.952c-.149 0-.296-.026-.441-.045.779.584 1.283 1.504 1.283 2.546 0 1.773-1.441 3.212-3.212 3.212-1.051 0-1.985-.511-2.57-1.296.133.976-.168 1.999-.899 2.73a3.21 3.21 0 0 1-2.287.941z"/>
<path fill="#e2b322" d="M40.466 38.183c-.622-.622-1.629-.594-2.251.001h-3.258l2.304-2.305c.879 0 1.592-.713 1.592-1.592s-.713-1.592-1.592-1.592-1.593.713-1.593 1.592l-2.305 2.304v-3.258c.595-.622.623-1.629.001-2.251a1.59 1.59 0 0 0-2.25 0c-.621.622-.593 1.63.002 2.251v3.258l-2.305-2.304c0-.879-.713-1.592-1.592-1.592s-1.592.713-1.592 1.592.713 1.593 1.592 1.593l2.304 2.305h-3.258c-.622-.595-1.63-.623-2.251-.001a1.59 1.59 0 0 0 0 2.249c.622.622 1.63.593 2.251-.002h3.258l-2.304 2.305c-.879 0-1.592.713-1.592 1.593s.713 1.592 1.592 1.592 1.593-.713 1.593-1.592l2.305-2.304v3.258c-.595.622-.623 1.629-.001 2.251a1.59 1.59 0 0 0 2.25 0c.622-.622.593-1.63-.002-2.251v-3.258l2.305 2.304c0 .879.713 1.592 1.592 1.592s1.592-.713 1.592-1.592-.713-1.593-1.592-1.593l-2.304-2.305h3.258c.622.595 1.63.623 2.251.002a1.59 1.59 0 0 0 0-2.249z"/>
</svg>