<svg xmlns="http://www.w3.org/2000/svg" xmlns:xlink="http://www.w3.org/1999/xlink" width="100" height="100">
 <defs>
  <path d="M5.482 31.319A18.27 18.27 0 0 1 .109 18.358C.112 8.234 8.319.027 18.443.024s18.339 8.208 18.339 18.334h-10.74a7.6 7.6 0 0 0-7.599-7.593c-4.194 0-7.593 3.399-7.593 7.593a7.57 7.57 0 0 0 2.22 5.363h.005c1.375 1.38 2.52 1.779 5.368 2.231h0c5.066.527 9.648 2.054 12.966 5.372h0c3.319 3.319 5.373 7.901 5.373 12.962 0 10.126-8.213 18.339-18.339 18.339S.109 54.412.109 44.286H10.85a7.6 7.6 0 0 0 7.593 7.598c4.195 0 7.599-3.404 7.599-7.598 0-2.095-.851-3.988-2.221-5.363h-.005c-1.375-1.375-3.348-1.849-5.373-2.226v-.005c-4.91-.753-9.643-2.054-12.961-5.373h0zM73.452.024l-12.97 62.601h-10.74L36.782.024h10.74l7.6 36.663L62.712.024zm18.34 25.928h18.334l.005 18.334c0 10.127-8.213 18.34-18.339 18.34s-18.334-8.213-18.334-18.34h0l-.005-25.927C73.456 8.233 81.666.026 91.792.025s18.331 8.21 18.334 18.334H99.385a7.6 7.6 0 0 0-7.593-7.594 7.6 7.6 0 0 0-7.594 7.594v25.927c0 4.195 3.399 7.594 7.594 7.594a7.6 7.6 0 0 0 7.593-7.589v-7.593h-7.593V25.952z" transform="matrix(2 0 0 2 40 158)" id="A" fill="#fff"/>
 </defs>
 <path d="M87.77 23.809v71.504c0 2.598-2.09 4.688-4.687 4.688H17.457c-2.598 0-4.687-2.09-4.687-4.687V4.688C12.77 2.09 14.86 0 17.457 0h46.485z" fill="#b3b3b3"/>
 <path d="M63.942 23.809L87.77 47.637V23.809z" opacity=".4"/>
 <path d="M86.403 20.508L67.262 1.367C66.383.488 65.192 0 63.942 0v23.809H87.77c0-1.23-.488-2.422-1.367-3.301z" fill="#e6e6e6"/>
 <path d="M30.115 8.758l-6.859 76.489-10.158 11.586 7.18-12.687 7.027-79.097c.756.362 2.979 1.672 2.81 3.71z" opacity=".4"/>
 <g transform="matrix(.060535 -.050795 .050795 .060535 37.661356 29.863397)">
  <path d="M-718.984 276.544l610.062-610.062L1.447-224.696-607.789 384.557c-111.192 42.832-101.445 5.504-68.658-83.839-25.462 9.266-56.817 13.497-42.536-24.174z" fill="#fde061"/>
  <path d="M-763.684 397.59L-719 276.602c-1.657 13.479-2.446 20.206-.331 21.593 5.138 3.37 33.879-2.455 42.896 2.512 4.273 12.189-11.973 42.504-5.24 49.225 6.311 6.298 52.395-5.271 58.6-1.353.745 36.525-15.633 38.854 8.027 38.672l-117.154 43.776c-10.08-9.097-25.571-15.664-15.174-34.334z" fill="#fcb180"/>
  <path d="M-623.079 348.575c-55.782 18.405-78.519 8.198-53.357-47.868l601.109-601.109 50.974 50.251z" fill="#fdce24"/>
  <path d="M-623.076 348.578L-24.35-250.148l25.814 25.469-609.245 609.245-22.619 8.405z" fill="#f4b729"/>
  <path d="M-727.27 416.026l104.195-67.448c1.828 6.341-5.376 33.067-4.644 36.381.357 1.618 5.052 2.035 12.671 2.292l-119.574 44.927z" fill="#df8040"/>
  <path d="M-676.436 300.706c3.464 6.731-6.175 25.521-7.071 42.295-.434 8.124 3.69 8.584 11.805 8.483 24.037-.876 42.898-6.382 48.626-2.906l-104.195 67.448c-23.115-2.147-21.762 5.937-20.107-19.333z" fill="#f3975a"/>
  <path d="M-782.898 448.649l19.411-51.731c.396-1.055 4.025-1.309 8.734-1.309 8.875 0 9.314.576 7.711 10.134-.606 3.615-.877 7.179-.602 7.92.352.947 3.511 1.347 10.625 1.347 9.076 0 10.124.203 10.124 1.964 0 2.768-2.786 13.421-4.728 14.138l-50.1 18.525c-1.24.459-1.488-.16-1.177-.988z" fill="#0f0d0b"/>
  <path d="M-49.377-393.062l47.509-47.509c18.819-22.203 131.38 87.037 109.602 109.605l-47.508 47.508A1113.83 1113.83 0 0 1-49.377-393.062z" fill="#ec9190"/>
  <path d="M-17.664-358.065l63.904-63.904c12.902 9.508 38.58 34.333 50.759 52.774l-62.53 62.562c-18.736-17.49-33.461-31.859-52.133-51.432z" fill="#e86c6a"/>
  <path d="M34.48-306.635l62.538-62.538c3.42 5.268 18.844 26.616 11.53 37.393l-48.323 48.316c-8.826-7.679-17.496-15.67-25.745-23.171z" fill="#d6514f"/>
  <path d="M-108.926-333.514l59.549-59.549c33.136 36.997 70.994 73.559 109.604 109.604L.678-223.91c-38.49-34.283-77.593-72.389-109.604-109.604z" fill="#dbdbdb"/>
 </g>
 <g transform="matrix(.191568 0 0 .191568 21.534653 36.356386)">
  <path id="B" fill="#000" d="M8.578 150h282.839v100c0 23.5-17.99 41.5-41.476 41.5H50.055c-23.487 0-41.476-18-41.476-41.5z"/>
  <g stroke="#000">
   <g id="C" transform="translate(150 150)">
    <path id="D" fill="#ffb13b" d="M-84.149-15.851a22.417 22.417 0 1 0 0 31.703H84.149a22.417 22.417 0 1 0 0-31.703z" stroke-width="38.009"/>
    <g stroke-width="38.009">
     <use xlink:href="#D" transform="rotate(45)"/>
     <use xlink:href="#D" transform="rotate(90)"/>
     <use xlink:href="#D" transform="rotate(135)"/>
    </g>
   </g>
  </g>
  <use xlink:href="#C"/>
  <use xlink:href="#B" opacity=".85"/>
  <use xlink:href="#A"/>
 </g>
</svg>